<?xml version="1.0" encoding="utf-8"?>
<!-- Generator: Adobe Illustrator 16.0.0, SVG Export Plug-In . SVG Version: 6.00 Build 0)  -->
<!DOCTYPE svg PUBLIC "-//W3C//DTD SVG 1.1//EN" "http://www.w3.org/Graphics/SVG/1.1/DTD/svg11.dtd">
<svg version="1.1" id="Layer_1" xmlns="http://www.w3.org/2000/svg" xmlns:xlink="http://www.w3.org/1999/xlink" x="0px" y="0px"
	 width="200px" height="56px" viewBox="0 0 200 56" enable-background="new 0 0 200 56" xml:space="preserve">
<g>
	<g>
		<path fill="#17355E" d="M3.481,4.046v6.872H0.279V0h4.219l4.339,6.509L13.21,0h4.202v10.918h-3.204V4.046l-4.563,6.872H8.044
			L3.481,4.046z"/>
		<path fill="#17355E" d="M29.156,10.918V8.266h-6.82v2.652h-3.202V0.999c0-0.104,0.035-0.215,0.104-0.336s0.154-0.229,0.258-0.327
			s0.218-0.178,0.345-0.241C19.966,0.032,20.092,0,20.218,0h11.056c0.114,0,0.238,0.032,0.37,0.095s0.25,0.144,0.354,0.241
			c0.103,0.098,0.188,0.207,0.258,0.327c0.069,0.121,0.103,0.232,0.103,0.336v9.919H29.156z M22.336,5.407h6.82V2.875h-6.82V5.407z"
			/>
		<path fill="#17355E" d="M47.306,5.683c-0.022,0.068-0.06,0.158-0.112,0.267c-0.052,0.109-0.117,0.218-0.198,0.327
			c-0.081,0.109-0.167,0.215-0.258,0.319c-0.092,0.104-0.185,0.183-0.276,0.241c0.104,0.068,0.2,0.155,0.292,0.258
			c0.092,0.104,0.175,0.209,0.25,0.318c0.075,0.11,0.137,0.213,0.189,0.31c0.053,0.098,0.09,0.181,0.112,0.25v2.945h-3.203V8.266
			h-6.819v2.652h-3.204V0h12.141c0.116,0,0.238,0.032,0.37,0.095s0.25,0.144,0.354,0.241c0.104,0.098,0.188,0.207,0.258,0.327
			c0.068,0.121,0.103,0.232,0.103,0.336V5.683z M44.104,2.875h-6.819V5.39h6.819V2.875z"/>
		<path fill="#17355E" d="M50.113,10.918c-0.126,0-0.252-0.032-0.379-0.095c-0.125-0.063-0.241-0.144-0.344-0.241
			c-0.104-0.098-0.189-0.207-0.258-0.328c-0.069-0.12-0.104-0.232-0.104-0.335v-8.92c0-0.138,0.038-0.267,0.112-0.387
			c0.074-0.122,0.165-0.228,0.275-0.319c0.109-0.092,0.227-0.164,0.353-0.215C49.895,0.026,50.015,0,50.13,0h11.021
			c0.114,0,0.236,0.026,0.361,0.078c0.126,0.051,0.245,0.123,0.354,0.215c0.109,0.091,0.202,0.197,0.276,0.319
			c0.075,0.12,0.112,0.25,0.112,0.387v3.203H59.05V2.875h-6.819v5.167h6.819V6.716h3.203v3.203c0,0.103-0.035,0.216-0.104,0.335
			c-0.069,0.121-0.155,0.23-0.258,0.328c-0.104,0.097-0.222,0.178-0.354,0.241c-0.132,0.063-0.256,0.095-0.37,0.095H50.113z"/>
		<path fill="#17355E" d="M65.06,10.918c-0.126,0-0.253-0.032-0.378-0.095c-0.127-0.063-0.241-0.144-0.345-0.241
			c-0.103-0.098-0.189-0.207-0.258-0.328c-0.069-0.12-0.103-0.232-0.103-0.335v-8.92c0-0.138,0.036-0.267,0.111-0.387
			c0.074-0.122,0.167-0.228,0.276-0.319c0.109-0.092,0.227-0.164,0.353-0.215C64.841,0.026,64.963,0,65.078,0h11.02
			c0.115,0,0.235,0.026,0.362,0.078c0.126,0.051,0.243,0.123,0.353,0.215c0.11,0.091,0.2,0.197,0.275,0.319
			c0.074,0.12,0.111,0.25,0.111,0.387v8.92c0,0.103-0.033,0.216-0.102,0.335c-0.069,0.121-0.155,0.23-0.26,0.328
			c-0.103,0.097-0.221,0.178-0.352,0.241c-0.133,0.063-0.256,0.095-0.371,0.095H65.06z M73.998,2.875h-6.82v5.167h6.82V2.875z"/>
	</g>
	<g>
		<path fill="#EF4923" d="M92.148,7.267c0,0.104-0.035,0.215-0.104,0.336c-0.069,0.121-0.156,0.23-0.26,0.327
			c-0.103,0.098-0.221,0.178-0.352,0.241c-0.133,0.063-0.257,0.095-0.371,0.095h-8.938v2.652h-3.203V0h12.141
			c0.114,0,0.238,0.032,0.371,0.095c0.131,0.063,0.249,0.144,0.352,0.241c0.104,0.098,0.19,0.207,0.26,0.327
			c0.068,0.121,0.104,0.232,0.104,0.336V7.267z M88.945,2.875h-6.82V5.39h6.82V2.875z"/>
		<path fill="#EF4923" d="M94.955,10.918c-0.127,0-0.254-0.032-0.38-0.095c-0.126-0.063-0.241-0.144-0.343-0.241
			c-0.104-0.098-0.191-0.207-0.258-0.328c-0.07-0.12-0.104-0.232-0.104-0.335v-8.92c0-0.138,0.036-0.267,0.111-0.387
			c0.075-0.122,0.167-0.228,0.276-0.319c0.108-0.092,0.226-0.164,0.352-0.215C94.736,0.026,94.857,0,94.972,0h11.021
			c0.114,0,0.234,0.026,0.362,0.078c0.125,0.051,0.242,0.123,0.352,0.215c0.109,0.091,0.2,0.197,0.275,0.319
			c0.074,0.12,0.112,0.25,0.112,0.387v8.92c0,0.103-0.035,0.216-0.104,0.335c-0.068,0.121-0.154,0.23-0.258,0.328
			c-0.104,0.097-0.221,0.178-0.354,0.241c-0.133,0.063-0.255,0.095-0.37,0.095H94.955z M103.892,2.875h-6.819v5.167h6.819V2.875z"/>
		<path fill="#EF4923" d="M108.817,10.918V0h3.202v8.042h8.334v2.876H108.817z"/>
		<path fill="#EF4923" d="M123.161,10.918c-0.127,0-0.253-0.032-0.38-0.095c-0.126-0.063-0.24-0.144-0.344-0.241
			c-0.104-0.098-0.189-0.207-0.257-0.328c-0.07-0.12-0.104-0.232-0.104-0.335v-8.92c0-0.138,0.037-0.267,0.111-0.387
			c0.074-0.122,0.167-0.228,0.275-0.319c0.109-0.092,0.227-0.164,0.354-0.215C122.943,0.026,123.062,0,123.178,0h11.021
			c0.115,0,0.236,0.026,0.362,0.078c0.126,0.051,0.243,0.123,0.353,0.215c0.108,0.091,0.201,0.197,0.275,0.319
			c0.075,0.12,0.113,0.25,0.113,0.387v8.92c0,0.103-0.035,0.216-0.104,0.335c-0.068,0.121-0.154,0.23-0.258,0.328
			c-0.104,0.097-0.221,0.178-0.353,0.241c-0.133,0.063-0.257,0.095-0.371,0.095H123.161z M132.098,2.875h-6.818v5.167h6.818V2.875z"
			/>
	</g>
	<g>
		<path fill="#EF4923" d="M2.751,50.363V56H0.124v-8.956h3.461l3.56,5.34l3.587-5.34h3.448V56h-2.628v-5.637L7.809,56H6.495
			L2.751,50.363z"/>
		<path fill="#EF4923" d="M16.482,56c-0.104,0-0.208-0.026-0.311-0.077c-0.104-0.052-0.199-0.118-0.283-0.198
			c-0.084-0.081-0.154-0.17-0.212-0.269c-0.056-0.099-0.083-0.19-0.083-0.275v-7.317c0-0.113,0.03-0.219,0.091-0.318
			c0.062-0.099,0.136-0.186,0.226-0.262c0.089-0.074,0.186-0.134,0.29-0.176c0.104-0.042,0.202-0.063,0.296-0.063h9.041
			c0.095,0,0.193,0.021,0.297,0.063c0.104,0.042,0.201,0.102,0.29,0.176c0.089,0.076,0.165,0.163,0.226,0.262
			c0.062,0.1,0.092,0.205,0.092,0.318v7.317c0,0.085-0.028,0.177-0.084,0.275c-0.057,0.099-0.127,0.188-0.212,0.269
			c-0.085,0.08-0.182,0.146-0.29,0.198C25.747,55.974,25.645,56,25.551,56H16.482z M23.814,49.403h-5.595v4.237h5.595V49.403z"/>
		<path fill="#EF4923" d="M27.854,49.403v-2.359h10.426v2.359h-3.914V56H31.74v-6.597H27.854z"/>
		<path fill="#EF4923" d="M40.582,56c-0.104,0-0.207-0.026-0.311-0.077c-0.103-0.052-0.197-0.118-0.283-0.198
			c-0.084-0.081-0.155-0.17-0.212-0.269c-0.056-0.099-0.084-0.19-0.084-0.275v-7.317c0-0.113,0.031-0.219,0.092-0.318
			c0.061-0.099,0.136-0.186,0.226-0.262c0.089-0.074,0.186-0.134,0.29-0.176c0.104-0.042,0.203-0.063,0.298-0.063h9.041
			c0.093,0,0.193,0.021,0.296,0.063c0.104,0.042,0.2,0.102,0.29,0.176c0.09,0.076,0.165,0.163,0.227,0.262
			c0.061,0.1,0.091,0.205,0.091,0.318v7.317c0,0.085-0.028,0.177-0.084,0.275c-0.056,0.099-0.127,0.188-0.211,0.269
			c-0.085,0.08-0.182,0.146-0.29,0.198C49.847,55.974,49.745,56,49.652,56H40.582z M47.914,49.403h-5.595v4.237h5.595V49.403z"/>
		<path fill="#EF4923" d="M62.803,51.705c-0.02,0.057-0.05,0.13-0.093,0.219c-0.042,0.091-0.096,0.18-0.162,0.27
			c-0.066,0.09-0.137,0.176-0.212,0.261s-0.151,0.151-0.226,0.198c0.085,0.057,0.166,0.127,0.24,0.211
			c0.076,0.085,0.144,0.173,0.205,0.262c0.061,0.09,0.113,0.175,0.155,0.255c0.042,0.08,0.073,0.147,0.093,0.205V56h-2.628v-2.176
			h-5.594V56h-2.627v-8.956h9.96c0.093,0,0.194,0.026,0.303,0.077c0.108,0.053,0.204,0.118,0.29,0.198
			c0.084,0.08,0.155,0.169,0.211,0.269c0.057,0.099,0.085,0.19,0.085,0.275V51.705z M60.175,49.403h-5.594v2.062h5.594V49.403z"/>
	</g>
	<g>
		<path fill="#17355E" d="M74.98,55.456c-0.057,0.099-0.128,0.188-0.213,0.269c-0.084,0.08-0.181,0.146-0.289,0.198
			C74.369,55.974,74.27,56,74.175,56H65.12c-0.095,0-0.193-0.021-0.297-0.063c-0.105-0.042-0.2-0.102-0.29-0.177
			c-0.089-0.075-0.165-0.162-0.226-0.262c-0.062-0.099-0.092-0.204-0.092-0.317v-1.54h8.222v-0.96h-7.332
			c-0.104,0-0.207-0.026-0.311-0.078s-0.198-0.118-0.282-0.198c-0.085-0.08-0.156-0.169-0.212-0.268
			c-0.057-0.1-0.085-0.19-0.085-0.276v-3.997c0-0.085,0.028-0.177,0.085-0.275c0.056-0.1,0.127-0.188,0.212-0.269
			c0.084-0.08,0.179-0.146,0.282-0.198c0.104-0.051,0.207-0.077,0.311-0.077h9.055c0.095,0,0.193,0.021,0.297,0.063
			s0.2,0.102,0.29,0.176c0.089,0.076,0.163,0.163,0.226,0.262c0.061,0.1,0.092,0.205,0.092,0.318v1.54h-8.222v0.946h7.332
			c0.095,0,0.194,0.026,0.304,0.077c0.108,0.053,0.205,0.118,0.289,0.197c0.085,0.081,0.156,0.17,0.213,0.269
			c0.057,0.1,0.084,0.191,0.084,0.275v4.013C75.064,55.266,75.037,55.357,74.98,55.456z"/>
		<path fill="#17355E" d="M87.326,53.005c0,0.085-0.027,0.177-0.084,0.276c-0.057,0.099-0.127,0.188-0.211,0.268
			c-0.086,0.08-0.184,0.146-0.291,0.198c-0.108,0.052-0.21,0.077-0.303,0.077h-7.332V56h-2.629v-8.956h9.961
			c0.093,0,0.194,0.026,0.303,0.077c0.107,0.053,0.205,0.118,0.291,0.198c0.084,0.08,0.154,0.169,0.211,0.269
			c0.057,0.099,0.084,0.19,0.084,0.275V53.005z M84.699,49.403h-5.594v2.062h5.594V49.403z"/>
		<path fill="#17355E" d="M89.629,56c-0.104,0-0.207-0.026-0.311-0.077c-0.104-0.052-0.197-0.118-0.281-0.198
			c-0.086-0.081-0.156-0.17-0.213-0.269s-0.084-0.19-0.084-0.275v-7.317c0-0.113,0.029-0.219,0.092-0.318
			c0.06-0.099,0.136-0.186,0.226-0.262c0.089-0.074,0.187-0.134,0.289-0.176c0.104-0.042,0.202-0.063,0.296-0.063h9.042
			c0.094,0,0.193,0.021,0.297,0.063c0.103,0.042,0.199,0.102,0.289,0.176c0.09,0.076,0.165,0.163,0.227,0.262
			c0.062,0.1,0.091,0.205,0.091,0.318v7.317c0,0.085-0.027,0.177-0.084,0.275s-0.127,0.188-0.212,0.269
			c-0.085,0.08-0.181,0.146-0.29,0.198C98.895,55.974,98.793,56,98.699,56H89.629z M96.961,49.403h-5.594v4.237h5.594V49.403z"/>
		<path fill="#17355E" d="M111.851,51.705c-0.021,0.057-0.05,0.13-0.093,0.219c-0.043,0.091-0.097,0.18-0.162,0.27
			c-0.066,0.09-0.137,0.176-0.213,0.261c-0.075,0.085-0.149,0.151-0.226,0.198c0.085,0.057,0.165,0.127,0.24,0.211
			c0.075,0.085,0.144,0.173,0.206,0.262c0.061,0.09,0.111,0.175,0.154,0.255s0.072,0.147,0.093,0.205V56h-2.628v-2.176h-5.595V56
			h-2.627v-8.956h9.96c0.094,0,0.194,0.026,0.302,0.077c0.109,0.053,0.206,0.118,0.291,0.198s0.155,0.169,0.212,0.269
			c0.057,0.099,0.085,0.19,0.085,0.275V51.705z M109.223,49.403h-5.595v2.062h5.595V49.403z"/>
		<path fill="#17355E" d="M113.263,49.403v-2.359h10.425v2.359h-3.912V56h-2.629v-6.597H113.263z"/>
		<path fill="#17355E" d="M135.865,55.456c-0.057,0.099-0.127,0.188-0.212,0.269c-0.084,0.08-0.182,0.146-0.289,0.198
			c-0.109,0.051-0.21,0.077-0.304,0.077h-9.056c-0.095,0-0.193-0.021-0.297-0.063c-0.104-0.042-0.199-0.102-0.29-0.177
			c-0.089-0.075-0.165-0.162-0.226-0.262c-0.061-0.099-0.092-0.204-0.092-0.317v-1.54h8.223v-0.96h-7.333
			c-0.104,0-0.207-0.026-0.31-0.078c-0.104-0.052-0.198-0.118-0.282-0.198c-0.086-0.08-0.156-0.169-0.213-0.268
			c-0.057-0.1-0.085-0.19-0.085-0.276v-3.997c0-0.085,0.028-0.177,0.085-0.275c0.057-0.1,0.127-0.188,0.213-0.269
			c0.084-0.08,0.178-0.146,0.282-0.198c0.103-0.051,0.206-0.077,0.31-0.077h9.056c0.094,0,0.192,0.021,0.296,0.063
			c0.104,0.042,0.2,0.102,0.291,0.176c0.09,0.076,0.164,0.163,0.227,0.262c0.06,0.1,0.091,0.205,0.091,0.318v1.54h-8.221v0.946
			h7.331c0.094,0,0.194,0.026,0.304,0.077c0.107,0.053,0.205,0.118,0.289,0.197c0.085,0.081,0.155,0.17,0.212,0.269
			c0.057,0.1,0.085,0.191,0.085,0.275v4.013C135.95,55.266,135.922,55.357,135.865,55.456z"/>
	</g>
	<g>
		<path fill="#17355E" d="M8.511,25.293v18.257H0V14.54h11.211l11.531,17.297L34.365,14.54H45.53v29.011h-8.511V25.293
			L24.893,43.551h-4.256L8.511,25.293z"/>
	</g>
	<g>
		<path fill="#EE4823" d="M85.249,33.85c0,0.275-0.092,0.572-0.274,0.893c-0.184,0.32-0.412,0.61-0.688,0.87
			c-0.273,0.26-0.588,0.474-0.938,0.64c-0.352,0.169-0.68,0.253-0.983,0.253h-23.75v7.046h-8.51V14.54h32.26
			c0.304,0,0.632,0.084,0.983,0.251c0.35,0.168,0.664,0.382,0.938,0.641c0.275,0.259,0.504,0.549,0.688,0.869
			c0.183,0.32,0.274,0.618,0.274,0.893V33.85z M76.736,22.182h-18.12v6.681h18.12V22.182z"/>
	</g>
	<g>
		<path fill="#17355E" d="M98.336,25.293v18.257h-8.512V14.54h11.211l11.532,17.297l11.622-17.297h11.165v29.011h-8.511V25.293
			l-12.126,18.257h-4.256L98.336,25.293z"/>
	</g>
</g>
</svg>
